STARTFONT 2.1
FONT -Monotype-Monotype Corsiva-Regular-R-Normal--19-140-100-100-P-86-iso8859-4
SIZE 14 100 100
FONTBOUNDINGBOX 23 20 -4 -5

STARTPROPERTIES 24
FOUNDRY "Monotype"
FAMILY_NAME "Monotype Corsiva"
WEIGHT_NAME "Regular"
SLANT "R"
SETWIDTH_NAME "Normal"
ADD_STYLE_NAME ""
PIXEL_SIZE 19
POINT_SIZE 140
RESOLUTION_X 100
RESOLUTION_Y 100
SPACING "P"
AVERAGE_WIDTH 86
CHARSET_REGISTRY "iso8859"
CHARSET_ENCODING "4"
FACE_NAME "Monotype Corsiva ISO Latin4"
_DEC_DEVICE_FONTNAMES "PS=monotypecorsiva-lat4"
COPYRIGHT "Copyright (c) 1994 Monotype Typography Ltd."
CAP_HEIGHT 13
X_HEIGHT 9
WEIGHT 10
QUAD_WIDTH 10
DEFAULT_CHAR 160
FONT_DESCENT 6
FONT_ASCENT 16
ENDPROPERTIES

CHARS 191

STARTCHAR space
ENCODING 32
SWIDTH 220 0
DWIDTH 4 0
BBX 0 0 0 0
BITMAP
ENDCHAR

STARTCHAR exclam
ENCODING 33
SWIDTH 280 0
DWIDTH 5 0
BBX 4 12 2 0
BITMAP
10
10
10
20
20
20
40
40
40
00
80
80
ENDCHAR

STARTCHAR quotedbl
ENCODING 34
SWIDTH 220 0
DWIDTH 4 0
BBX 3 5 1 7
BITMAP
A0
A0
A0
A0
A0
ENDCHAR

STARTCHAR numbersign
ENCODING 35
SWIDTH 680 0
DWIDTH 13 0
BBX 10 11 2 0
BITMAP
0900
0900
0900
7FC0
1200
1200
1200
FF80
2400
2400
2400
ENDCHAR

STARTCHAR dollar
ENCODING 36
SWIDTH 440 0
DWIDTH 8 0
BBX 7 14 1 -2
BITMAP
04
0E
1A
28
28
30
18
14
14
24
A8
F0
20
20
ENDCHAR

STARTCHAR percent
ENCODING 37
SWIDTH 680 0
DWIDTH 13 0
BBX 9 11 3 0
BITMAP
2100
5100
9200
9200
A400
4900
0A80
1480
1480
2500
2200
ENDCHAR

STARTCHAR ampersand
ENCODING 38
SWIDTH 780 0
DWIDTH 15 0
BBX 15 13 0 -1
BITMAP
0006
007C
00C8
0090
3890
4420
9820
8440
8240
8180
4184
3EC8
0030
ENDCHAR

STARTCHAR quoteright
ENCODING 39
SWIDTH 240 0
DWIDTH 5 0
BBX 3 5 2 7
BITMAP
20
20
20
40
80
ENDCHAR

STARTCHAR parenleft
ENCODING 40
SWIDTH 260 0
DWIDTH 5 0
BBX 6 17 1 -5
BITMAP
04
08
10
20
20
40
40
80
80
80
80
80
80
80
80
40
40
ENDCHAR

STARTCHAR parenright
ENCODING 41
SWIDTH 220 0
DWIDTH 5 0
BBX 6 17 -1 -5
BITMAP
08
08
04
04
04
04
04
04
04
04
08
08
10
10
20
40
80
ENDCHAR

STARTCHAR asterisk
ENCODING 42
SWIDTH 420 0
DWIDTH 8 0
BBX 6 6 1 6
BITMAP
48
30
CC
48
30
48
ENDCHAR

STARTCHAR plus
ENCODING 43
SWIDTH 520 0
DWIDTH 10 0
BBX 9 9 1 1
BITMAP
0800
0800
0800
0800
FF80
0800
0800
0800
0800
ENDCHAR

STARTCHAR comma
ENCODING 44
SWIDTH 220 0
DWIDTH 4 0
BBX 3 5 0 -3
BITMAP
20
20
20
40
80
ENDCHAR

STARTCHAR minus
ENCODING 45
SWIDTH 600 0
DWIDTH 11 0
BBX 9 1 1 5
BITMAP
FF80
ENDCHAR

STARTCHAR period
ENCODING 46
SWIDTH 220 0
DWIDTH 4 0
BBX 1 2 2 0
BITMAP
80
80
ENDCHAR

STARTCHAR slash
ENCODING 47
SWIDTH 340 0
DWIDTH 6 0
BBX 8 17 0 -5
BITMAP
01
01
03
02
06
04
0C
08
18
10
30
20
60
40
C0
80
80
ENDCHAR

STARTCHAR zero
ENCODING 48
SWIDTH 440 0
DWIDTH 8 0
BBX 8 11 0 0
BITMAP
1E
21
41
41
81
81
81
82
82
84
78
ENDCHAR

STARTCHAR one
ENCODING 49
SWIDTH 440 0
DWIDTH 8 0
BBX 5 11 1 0
BITMAP
08
38
08
08
10
10
10
20
20
20
F8
ENDCHAR

STARTCHAR two
ENCODING 50
SWIDTH 440 0
DWIDTH 8 0
BBX 8 11 0 0
BITMAP
0E
11
21
01
02
04
08
10
20
42
FC
ENDCHAR

STARTCHAR three
ENCODING 51
SWIDTH 440 0
DWIDTH 8 0
BBX 7 11 0 0
BITMAP
1C
22
02
04
18
04
02
02
04
88
70
ENDCHAR

STARTCHAR four
ENCODING 52
SWIDTH 440 0
DWIDTH 8 0
BBX 8 11 0 0
BITMAP
02
06
0A
12
24
44
84
FF
08
08
08
ENDCHAR

STARTCHAR five
ENCODING 53
SWIDTH 440 0
DWIDTH 8 0
BBX 8 11 0 0
BITMAP
0F
08
10
1C
02
02
02
02
04
88
70
ENDCHAR

STARTCHAR six
ENCODING 54
SWIDTH 440 0
DWIDTH 8 0
BBX 7 11 1 0
BITMAP
0E
30
40
40
B8
C4
84
84
84
88
70
ENDCHAR

STARTCHAR seven
ENCODING 55
SWIDTH 440 0
DWIDTH 8 0
BBX 7 11 1 0
BITMAP
7E
82
04
08
10
20
20
40
40
80
80
ENDCHAR

STARTCHAR eight
ENCODING 56
SWIDTH 440 0
DWIDTH 8 0
BBX 7 11 1 0
BITMAP
1C
22
22
22
14
38
44
84
84
88
70
ENDCHAR

STARTCHAR nine
ENCODING 57
SWIDTH 440 0
DWIDTH 8 0
BBX 7 11 0 0
BITMAP
1C
22
42
42
42
46
3A
04
04
18
E0
ENDCHAR

STARTCHAR colon
ENCODING 58
SWIDTH 260 0
DWIDTH 5 0
BBX 2 8 2 0
BITMAP
40
40
00
00
00
00
80
80
ENDCHAR

STARTCHAR semicolon
ENCODING 59
SWIDTH 240 0
DWIDTH 5 0
BBX 4 11 0 -3
BITMAP
10
10
00
00
00
00
20
20
20
40
80
ENDCHAR

STARTCHAR less
ENCODING 60
SWIDTH 520 0
DWIDTH 10 0
BBX 8 9 1 1
BITMAP
01
07
18
60
C0
60
18
07
01
ENDCHAR

STARTCHAR equal
ENCODING 61
SWIDTH 520 0
DWIDTH 10 0
BBX 8 3 1 4
BITMAP
FF
00
FF
ENDCHAR

STARTCHAR greater
ENCODING 62
SWIDTH 520 0
DWIDTH 10 0
BBX 8 9 1 1
BITMAP
80
E0
18
06
03
06
18
E0
80
ENDCHAR

STARTCHAR question
ENCODING 63
SWIDTH 380 0
DWIDTH 7 0
BBX 6 12 2 0
BITMAP
38
44
04
04
04
18
20
40
40
00
80
80
ENDCHAR

STARTCHAR at
ENCODING 64
SWIDTH 700 0
DWIDTH 13 0
BBX 11 12 2 -1
BITMAP
0F80
1040
2720
4920
9120
A220
A640
AC80
B700
8080
4100
3E00
ENDCHAR

STARTCHAR A
ENCODING 65
SWIDTH 620 0
DWIDTH 12 0
BBX 13 13 -2 -2
BITMAP
00F8
0118
0228
0248
0090
0090
0110
03E0
0220
0420
0838
1000
E000
ENDCHAR

STARTCHAR B
ENCODING 66
SWIDTH 600 0
DWIDTH 11 0
BBX 11 11 0 0
BITMAP
1F80
2040
4420
4420
8440
8F80
8840
4820
1020
1040
7F80
ENDCHAR

STARTCHAR C
ENCODING 67
SWIDTH 520 0
DWIDTH 10 0
BBX 10 13 0 -2
BITMAP
07C0
0840
1040
2040
4000
4000
8000
8000
8000
8000
4100
4200
3C00
ENDCHAR

STARTCHAR D
ENCODING 68
SWIDTH 700 0
DWIDTH 13 0
BBX 13 11 0 0
BITMAP
1FE0
2010
4408
4408
8808
8808
8808
5010
1010
1020
7FC0
ENDCHAR

STARTCHAR E
ENCODING 69
SWIDTH 620 0
DWIDTH 12 0
BBX 11 11 1 0
BITMAP
1FE0
2420
4420
8400
8880
8F80
4880
1000
1020
1020
7FC0
ENDCHAR

STARTCHAR F
ENCODING 70
SWIDTH 580 0
DWIDTH 11 0
BBX 11 11 0 0
BITMAP
1FE0
2420
4420
8400
8880
8F80
4880
1000
1000
1000
7E00
ENDCHAR

STARTCHAR G
ENCODING 71
SWIDTH 620 0
DWIDTH 12 0
BBX 11 16 1 -5
BITMAP
0FE0
1020
2020
4020
4000
8000
8000
87C0
8080
4080
3F00
0100
0100
0200
2200
1C00
ENDCHAR

STARTCHAR H
ENCODING 72
SWIDTH 680 0
DWIDTH 13 0
BBX 15 12 0 0
BITMAP
001C
1C22
2420
4420
4840
0840
0FC0
0840
1080
1080
9080
60E0
ENDCHAR

STARTCHAR I
ENCODING 73
SWIDTH 380 0
DWIDTH 7 0
BBX 7 11 0 0
BITMAP
3E
08
08
08
10
10
10
20
20
20
F8
ENDCHAR

STARTCHAR J
ENCODING 74
SWIDTH 400 0
DWIDTH 8 0
BBX 8 14 0 -3
BITMAP
07
09
11
11
02
02
02
02
04
04
04
04
88
70
ENDCHAR

STARTCHAR K
ENCODING 75
SWIDTH 660 0
DWIDTH 13 0
BBX 13 14 1 -3
BITMAP
38F0
4840
8880
8900
1200
1C00
1400
2200
2200
2100
F900
0088
0048
0030
ENDCHAR

STARTCHAR L
ENCODING 76
SWIDTH 580 0
DWIDTH 11 0
BBX 10 11 1 0
BITMAP
0700
0880
0800
0800
1000
1000
1000
2000
2040
2040
FF80
ENDCHAR

STARTCHAR M
ENCODING 77
SWIDTH 840 0
DWIDTH 16 0
BBX 15 11 0 0
BITMAP
1E02
2206
420A
4212
2512
0524
0544
0544
0888
8888
708E
ENDCHAR

STARTCHAR N
ENCODING 78
SWIDTH 700 0
DWIDTH 13 0
BBX 16 12 0 -1
BITMAP
1E0E
2211
4510
4510
2510
0920
08A0
08A0
1040
1040
9040
6000
ENDCHAR

STARTCHAR O
ENCODING 79
SWIDTH 600 0
DWIDTH 11 0
BBX 11 11 0 0
BITMAP
0F80
1040
2020
4020
4020
8020
8040
8040
8080
4100
3E00
ENDCHAR

STARTCHAR P
ENCODING 80
SWIDTH 540 0
DWIDTH 10 0
BBX 12 11 0 0
BITMAP
1FC0
2020
4210
4210
8420
87C0
8400
4800
0800
0800
3F00
ENDCHAR

STARTCHAR Q
ENCODING 81
SWIDTH 600 0
DWIDTH 11 0
BBX 14 16 0 -5
BITMAP
0F80
1040
2020
4020
4020
8020
8040
8040
8080
4100
3E00
0800
0400
0200
0184
0078
ENDCHAR

STARTCHAR R
ENCODING 82
SWIDTH 600 0
DWIDTH 11 0
BBX 13 14 1 -3
BITMAP
1F80
2040
4420
8420
8840
8F80
4A00
1200
1100
1100
7100
0080
0088
0070
ENDCHAR

STARTCHAR S
ENCODING 83
SWIDTH 460 0
DWIDTH 9 0
BBX 8 11 1 0
BITMAP
0E
11
21
20
18
04
02
02
82
84
78
ENDCHAR

STARTCHAR T
ENCODING 84
SWIDTH 500 0
DWIDTH 10 0
BBX 11 12 1 0
BITMAP
0020
3FC0
4200
8200
8200
4400
0400
0400
0800
0800
0800
3F00
ENDCHAR

STARTCHAR U
ENCODING 85
SWIDTH 740 0
DWIDTH 14 0
BBX 13 12 1 0
BITMAP
0010
3C08
4408
8408
8808
4810
0810
1010
1020
1040
1080
0F00
ENDCHAR

STARTCHAR V
ENCODING 86
SWIDTH 640 0
DWIDTH 12 0
BBX 12 12 1 0
BITMAP
0020
3C10
4410
8420
8420
4840
0880
0900
1200
1400
1800
1000
ENDCHAR

STARTCHAR W
ENCODING 87
SWIDTH 880 0
DWIDTH 17 0
BBX 18 12 0 0
BITMAP
000080
3C1040
442040
846080
88A080
48A100
092200
0A2400
122400
142800
183000
102000
ENDCHAR

STARTCHAR X
ENCODING 88
SWIDTH 560 0
DWIDTH 11 0
BBX 13 12 0 -1
BITMAP
0F18
0120
0140
0180
0100
0180
0280
0480
0880
1080
20E0
C000
ENDCHAR

STARTCHAR Y
ENCODING 89
SWIDTH 560 0
DWIDTH 11 0
BBX 13 11 1 0
BITMAP
3038
4820
8840
8480
4480
0500
0600
0800
0800
0800
3F00
ENDCHAR

STARTCHAR Z
ENCODING 90
SWIDTH 620 0
DWIDTH 12 0
BBX 12 11 0 0
BITMAP
0E10
13E0
1840
0080
0100
0200
0400
0800
1000
3E60
E1C0
ENDCHAR

STARTCHAR bracketleft
ENCODING 91
SWIDTH 240 0
DWIDTH 5 0
BBX 6 17 1 -5
BITMAP
1C
10
10
10
20
20
20
20
40
40
40
40
40
80
80
80
E0
ENDCHAR

STARTCHAR backslash
ENCODING 92
SWIDTH 480 0
DWIDTH 9 0
BBX 10 17 0 -5
BITMAP
8000
8000
4000
4000
2000
1000
1000
0800
0800
0400
0200
0200
0100
0100
0080
0040
0040
ENDCHAR

STARTCHAR bracketright
ENCODING 93
SWIDTH 320 0
DWIDTH 5 0
BBX 6 17 -1 -5
BITMAP
1C
04
04
04
08
08
08
08
10
10
10
10
10
20
20
20
E0
ENDCHAR

STARTCHAR asciicircum
ENCODING 94
SWIDTH 520 0
DWIDTH 10 0
BBX 5 3 3 9
BITMAP
20
70
88
ENDCHAR

STARTCHAR underscore
ENCODING 95
SWIDTH 500 0
DWIDTH 10 0
BBX 10 1 0 -2
BITMAP
FFC0
ENDCHAR

STARTCHAR quoteleft
ENCODING 96
SWIDTH 240 0
DWIDTH 5 0
BBX 3 5 3 7
BITMAP
20
40
80
80
80
ENDCHAR

STARTCHAR a
ENCODING 97
SWIDTH 420 0
DWIDTH 8 0
BBX 8 8 1 0
BITMAP
1E
22
42
42
84
84
8D
76
ENDCHAR

STARTCHAR b
ENCODING 98
SWIDTH 420 0
DWIDTH 8 0
BBX 7 12 1 0
BITMAP
1C
22
20
20
5C
62
42
42
84
84
88
70
ENDCHAR

STARTCHAR c
ENCODING 99
SWIDTH 340 0
DWIDTH 6 0
BBX 6 8 1 0
BITMAP
1C
24
40
80
80
80
88
70
ENDCHAR

STARTCHAR d
ENCODING 100
SWIDTH 440 0
DWIDTH 8 0
BBX 10 12 1 0
BITMAP
0180
0240
0200
0200
3400
4C00
4400
8400
8400
8800
8900
7600
ENDCHAR

STARTCHAR e
ENCODING 101
SWIDTH 340 0
DWIDTH 6 0
BBX 6 8 1 0
BITMAP
38
44
44
88
F0
80
88
70
ENDCHAR

STARTCHAR f
ENCODING 102
SWIDTH 320 0
DWIDTH 6 0
BBX 14 17 -3 -5
BITMAP
0078
0084
0100
0100
0100
0FE0
0200
0200
0200
0400
0400
0400
0400
0800
0800
8800
7000
ENDCHAR

STARTCHAR g
ENCODING 103
SWIDTH 400 0
DWIDTH 8 0
BBX 8 14 0 -5
BITMAP
01
0F
11
11
21
22
22
22
1A
64
84
84
84
78
ENDCHAR

STARTCHAR h
ENCODING 104
SWIDTH 440 0
DWIDTH 8 0
BBX 8 12 1 0
BITMAP
0E
11
20
20
2C
52
62
42
44
84
85
86
ENDCHAR

STARTCHAR i
ENCODING 105
SWIDTH 240 0
DWIDTH 5 0
BBX 5 12 1 0
BITMAP
08
08
00
00
10
F0
20
20
40
40
48
30
ENDCHAR

STARTCHAR j
ENCODING 106
SWIDTH 220 0
DWIDTH 4 0
BBX 8 17 -3 -5
BITMAP
01
01
00
00
02
1E
02
02
04
04
04
04
08
08
08
10
E0
ENDCHAR

STARTCHAR k
ENCODING 107
SWIDTH 440 0
DWIDTH 8 0
BBX 11 16 1 -4
BITMAP
0E00
1100
2000
2000
2C00
5200
4400
7800
5000
9000
9000
8800
0800
0400
0220
01C0
ENDCHAR

STARTCHAR l
ENCODING 108
SWIDTH 240 0
DWIDTH 5 0
BBX 8 12 1 0
BITMAP
0E
11
20
20
20
40
40
40
80
80
90
60
ENDCHAR

STARTCHAR m
ENCODING 109
SWIDTH 620 0
DWIDTH 12 0
BBX 12 8 0 0
BITMAP
2DC0
F220
2220
2220
2420
4440
4450
4460
ENDCHAR

STARTCHAR n
ENCODING 110
SWIDTH 460 0
DWIDTH 9 0
BBX 8 8 1 0
BITMAP
2C
F2
22
22
44
44
45
46
ENDCHAR

STARTCHAR o
ENCODING 111
SWIDTH 400 0
DWIDTH 8 0
BBX 7 8 1 0
BITMAP
1C
22
42
82
82
84
88
70
ENDCHAR

STARTCHAR p
ENCODING 112
SWIDTH 440 0
DWIDTH 8 0
BBX 10 13 -2 -5
BITMAP
0B80
3C40
0840
0840
1040
1080
1880
1700
1000
2000
2000
2000
F800
ENDCHAR

STARTCHAR q
ENCODING 113
SWIDTH 400 0
DWIDTH 8 0
BBX 7 13 1 -5
BITMAP
1A
26
42
82
84
84
8C
74
04
08
08
08
3E
ENDCHAR

STARTCHAR r
ENCODING 114
SWIDTH 300 0
DWIDTH 6 0
BBX 7 8 1 0
BITMAP
26
F8
20
20
40
40
40
40
ENDCHAR

STARTCHAR s
ENCODING 115
SWIDTH 320 0
DWIDTH 6 0
BBX 6 8 1 0
BITMAP
38
44
40
30
08
08
88
70
ENDCHAR

STARTCHAR t
ENCODING 116
SWIDTH 320 0
DWIDTH 6 0
BBX 6 9 1 0
BITMAP
10
10
FC
20
20
40
40
48
30
ENDCHAR

STARTCHAR u
ENCODING 117
SWIDTH 460 0
DWIDTH 9 0
BBX 8 8 1 0
BITMAP
22
E2
22
22
44
44
4D
36
ENDCHAR

STARTCHAR v
ENCODING 118
SWIDTH 440 0
DWIDTH 8 0
BBX 9 8 0 0
BITMAP
7100
9080
9080
1080
2100
2200
2400
1800
ENDCHAR

STARTCHAR w
ENCODING 119
SWIDTH 680 0
DWIDTH 13 0
BBX 13 8 0 0
BITMAP
7890
8888
9088
1108
2110
2320
2540
1880
ENDCHAR

STARTCHAR x
ENCODING 120
SWIDTH 420 0
DWIDTH 8 0
BBX 10 11 0 -3
BITMAP
3180
4A40
0400
0400
0800
0800
9400
6400
0200
0240
0180
ENDCHAR

STARTCHAR y
ENCODING 121
SWIDTH 400 0
DWIDTH 8 0
BBX 10 13 -2 -5
BITMAP
1880
2440
0440
0240
0280
0280
0100
0100
0200
0200
0400
8800
7000
ENDCHAR

STARTCHAR z
ENCODING 122
SWIDTH 440 0
DWIDTH 8 0
BBX 8 8 0 0
BITMAP
1F
22
14
08
10
21
71
8E
ENDCHAR

STARTCHAR braceleft
ENCODING 123
SWIDTH 240 0
DWIDTH 5 0
BBX 6 17 1 -5
BITMAP
0C
10
10
20
20
40
40
80
80
40
40
40
80
80
80
80
60
ENDCHAR

STARTCHAR bar
ENCODING 124
SWIDTH 520 0
DWIDTH 10 0
BBX 1 17 5 -5
BITMAP
80
80
80
80
80
80
80
80
80
80
80
80
80
80
80
80
80
ENDCHAR

STARTCHAR braceright
ENCODING 125
SWIDTH 240 0
DWIDTH 5 0
BBX 6 17 -1 -4
BITMAP
18
04
04
04
04
08
08
08
04
04
08
08
10
10
20
20
C0
ENDCHAR

STARTCHAR asciitilde
ENCODING 126
SWIDTH 520 0
DWIDTH 10 0
BBX 8 2 2 4
BITMAP
79
9E
ENDCHAR

STARTCHAR space
ENCODING 160
SWIDTH 220 0
DWIDTH 5 0
BBX 0 0 0 0
BITMAP
ENDCHAR

STARTCHAR Aogonek
ENCODING 161
SWIDTH 620 0
DWIDTH 12 0
BBX 14 14 -2 -3
BITMAP
00F8
0118
0228
0248
0090
0090
0110
03E0
0220
0420
0838
1010
E010
000C
ENDCHAR

STARTCHAR afii240
ENCODING 162
SWIDTH 444 0
DWIDTH 9 0
BBX 8 8 1 0
BITMAP
22
E4
28
30
68
44
42
41
ENDCHAR

STARTCHAR Rcommaaccent
ENCODING 163
SWIDTH 600 0
DWIDTH 11 0
BBX 13 15 1 -4
BITMAP
1F80
2040
4420
8420
8840
8F80
4A00
1200
1100
1100
7100
0080
0888
0870
1000
ENDCHAR

STARTCHAR currency
ENCODING 164
SWIDTH 600 0
DWIDTH 11 0
BBX 8 8 2 1
BITMAP
BD
42
81
81
81
81
42
BD
ENDCHAR

STARTCHAR Itilde
ENCODING 165
SWIDTH 380 0
DWIDTH 7 0
BBX 8 14 0 0
BITMAP
19
26
00
3E
08
08
08
10
10
10
20
20
20
F8
ENDCHAR

STARTCHAR Lcommaaccent
ENCODING 166
SWIDTH 580 0
DWIDTH 11 0
BBX 10 15 1 -4
BITMAP
0700
0880
0800
0800
1000
1000
1000
2000
2040
2040
FF80
0000
0800
0800
1000
ENDCHAR

STARTCHAR section
ENCODING 167
SWIDTH 420 0
DWIDTH 8 0
BBX 12 17 -1 -4
BITMAP
00E0
03B0
0500
0500
0D00
0900
0980
0880
0C80
0480
0480
0480
0480
0500
0600
CC00
7000
ENDCHAR

STARTCHAR hungarumlaut
ENCODING 168
SWIDTH 400 0
DWIDTH 8 0
BBX 6 3 2 9
BITMAP
6C
48
90
ENDCHAR

STARTCHAR Scaron
ENCODING 169
SWIDTH 460 0
DWIDTH 9 0
BBX 8 15 1 0
BITMAP
11
0A
04
00
0E
11
21
20
18
04
02
02
82
84
78
ENDCHAR

STARTCHAR Emacron
ENCODING 170
SWIDTH 620 0
DWIDTH 12 0
BBX 11 14 1 0
BITMAP
0FE0
0000
0000
1FE0
2420
4420
8400
8880
8F80
4880
1000
1020
1020
7FC0
ENDCHAR

STARTCHAR Gcommaaccent
ENCODING 171
SWIDTH 620 0
DWIDTH 12 0
BBX 11 16 1 -5
BITMAP
0FE0
1020
2020
4020
4000
8000
8000
87C0
8080
4080
3F00
0100
2100
2200
4200
1C00
ENDCHAR

STARTCHAR afii237
ENCODING 172
SWIDTH 556 0
DWIDTH 10 0
BBX 11 12 1 0
BITMAP
0020
3FC0
4200
8200
8200
4400
1F80
0400
0800
0800
0800
3F00
ENDCHAR

STARTCHAR hyphen
ENCODING 173
SWIDTH 280 0
DWIDTH 5 0
BBX 4 1 1 3
BITMAP
F0
ENDCHAR

STARTCHAR Zcaron
ENCODING 174
SWIDTH 620 0
DWIDTH 12 0
BBX 12 15 0 0
BITMAP
0220
0140
0080
0000
0E10
13E0
1840
0080
0100
0200
0400
0800
1000
3E60
E1C0
ENDCHAR

STARTCHAR macron
ENCODING 175
SWIDTH 440 0
DWIDTH 8 0
BBX 5 1 2 9
BITMAP
F8
ENDCHAR

STARTCHAR degree
ENCODING 176
SWIDTH 400 0
DWIDTH 8 0
BBX 5 5 2 6
BITMAP
70
88
88
88
70
ENDCHAR

STARTCHAR aogonek
ENCODING 177
SWIDTH 420 0
DWIDTH 8 0
BBX 8 11 1 -3
BITMAP
1E
22
42
42
84
84
8D
76
04
04
03
ENDCHAR

STARTCHAR ogonek
ENCODING 178
SWIDTH 280 0
DWIDTH 5 0
BBX 3 4 1 -4
BITMAP
80
80
80
60
ENDCHAR

STARTCHAR rcommaaccent
ENCODING 179
SWIDTH 300 0
DWIDTH 6 0
BBX 7 12 1 -4
BITMAP
26
F8
20
20
40
40
40
40
00
40
40
80
ENDCHAR

STARTCHAR acute
ENCODING 180
SWIDTH 300 0
DWIDTH 6 0
BBX 3 3 2 9
BITMAP
60
40
80
ENDCHAR

STARTCHAR itilde
ENCODING 181
SWIDTH 240 0
DWIDTH 5 0
BBX 7 11 1 0
BITMAP
32
4C
00
10
F0
20
20
40
40
48
30
ENDCHAR

STARTCHAR lcommaaccent
ENCODING 182
SWIDTH 240 0
DWIDTH 5 0
BBX 8 16 1 -4
BITMAP
0E
11
20
20
20
40
40
40
80
80
90
60
00
40
40
80
ENDCHAR

STARTCHAR caron
ENCODING 183
SWIDTH 340 0
DWIDTH 6 0
BBX 5 3 1 9
BITMAP
88
50
20
ENDCHAR

STARTCHAR commaaccent
ENCODING 184
SWIDTH 333 0
DWIDTH 6 0
BBX 2 3 2 -4
BITMAP
40
40
80
ENDCHAR

STARTCHAR scaron
ENCODING 185
SWIDTH 320 0
DWIDTH 6 0
BBX 6 12 1 0
BITMAP
44
28
10
00
38
44
40
30
08
08
88
70
ENDCHAR

STARTCHAR emacron
ENCODING 186
SWIDTH 340 0
DWIDTH 6 0
BBX 6 11 1 0
BITMAP
7C
00
00
38
44
44
88
F0
80
88
70
ENDCHAR

STARTCHAR gcommaaccent
ENCODING 187
SWIDTH 400 0
DWIDTH 8 0
BBX 8 17 0 -5
BITMAP
02
04
04
01
0F
11
11
21
22
22
22
1A
64
84
84
84
78
ENDCHAR

STARTCHAR afii253
ENCODING 188
SWIDTH 278 0
DWIDTH 6 0
BBX 7 9 0 0
BITMAP
08
08
7E
10
10
FC
20
24
18
ENDCHAR

STARTCHAR afii238
ENCODING 189
SWIDTH 685 0
DWIDTH 13 0
BBX 13 11 0 0
BITMAP
1DE0
2610
4408
4808
0808
0810
0810
1010
1020
9020
61C0
ENDCHAR

STARTCHAR zcaron
ENCODING 190
SWIDTH 440 0
DWIDTH 8 0
BBX 8 12 0 0
BITMAP
11
0A
04
00
1F
22
14
08
10
21
71
8E
ENDCHAR

STARTCHAR afii254
ENCODING 191
SWIDTH 482 0
DWIDTH 9 0
BBX 8 12 1 -4
BITMAP
2E
F1
21
21
42
42
42
42
04
04
04
38
ENDCHAR

STARTCHAR Amacron
ENCODING 192
SWIDTH 620 0
DWIDTH 12 0
BBX 14 16 -2 -2
BITMAP
00FC
0000
0000
00F8
0118
0228
0248
0090
0090
0110
03E0
0220
0420
0838
1000
E000
ENDCHAR

STARTCHAR Aacute
ENCODING 193
SWIDTH 620 0
DWIDTH 12 0
BBX 13 17 -2 -2
BITMAP
0018
0010
0020
0000
00F8
0118
0228
0248
0090
0090
0110
03E0
0220
0420
0838
1000
E000
ENDCHAR

STARTCHAR Acircumflex
ENCODING 194
SWIDTH 620 0
DWIDTH 12 0
BBX 14 17 -2 -2
BITMAP
0010
0028
0044
0000
00F8
0118
0228
0248
0090
0090
0110
03E0
0220
0420
0838
1000
E000
ENDCHAR

STARTCHAR Atilde
ENCODING 195
SWIDTH 620 0
DWIDTH 12 0
BBX 14 16 -2 -2
BITMAP
0064
0098
0000
00F8
0118
0228
0248
0090
0090
0110
03E0
0220
0420
0838
1000
E000
ENDCHAR

STARTCHAR Adieresis
ENCODING 196
SWIDTH 620 0
DWIDTH 12 0
BBX 13 16 -2 -2
BITMAP
0048
0048
0000
00F8
0118
0228
0248
0090
0090
0110
03E0
0220
0420
0838
1000
E000
ENDCHAR

STARTCHAR Aring
ENCODING 197
SWIDTH 620 0
DWIDTH 12 0
BBX 14 17 -2 -2
BITMAP
0018
0024
0024
0018
00F8
0118
0228
0248
0090
0090
0110
03E0
0220
0420
0838
1000
E000
ENDCHAR

STARTCHAR AE
ENCODING 198
SWIDTH 740 0
DWIDTH 14 0
BBX 15 12 -1 -1
BITMAP
01FE
00A2
01A0
0228
0278
0448
0FC0
0880
1082
1082
23FC
C000
ENDCHAR

STARTCHAR Iogonek
ENCODING 199
SWIDTH 380 0
DWIDTH 7 0
BBX 7 14 0 -3
BITMAP
3E
08
08
08
10
10
10
20
20
20
F8
20
20
18
ENDCHAR

STARTCHAR Ccaron
ENCODING 200
SWIDTH 520 0
DWIDTH 10 0
BBX 10 17 0 -2
BITMAP
0440
0280
0100
0000
07C0
0840
1040
2040
4000
4000
8000
8000
8000
8000
4100
4200
3C00
ENDCHAR

STARTCHAR Eacute
ENCODING 201
SWIDTH 620 0
DWIDTH 12 0
BBX 11 15 1 0
BITMAP
00C0
0080
0100
0000
1FE0
2420
4420
8400
8880
8F80
4880
1000
1020
1020
7FC0
ENDCHAR

STARTCHAR Eogonek
ENCODING 202
SWIDTH 620 0
DWIDTH 12 0
BBX 11 14 1 -3
BITMAP
1FE0
2420
4420
8400
8880
8F80
4880
1000
1020
1020
7FC0
0080
0080
0060
ENDCHAR

STARTCHAR Edieresis
ENCODING 203
SWIDTH 620 0
DWIDTH 12 0
BBX 11 14 1 0
BITMAP
0440
0440
0000
1FE0
2420
4420
8400
8880
8F80
4880
1000
1020
1020
7FC0
ENDCHAR

STARTCHAR Edotaccent
ENCODING 204
SWIDTH 620 0
DWIDTH 12 0
BBX 11 14 1 0
BITMAP
0100
0100
0000
1FE0
2420
4420
8400
8880
8F80
4880
1000
1020
1020
7FC0
ENDCHAR

STARTCHAR Iacute
ENCODING 205
SWIDTH 380 0
DWIDTH 7 0
BBX 7 15 0 0
BITMAP
06
04
08
00
3E
08
08
08
10
10
10
20
20
20
F8
ENDCHAR

STARTCHAR Icircumflex
ENCODING 206
SWIDTH 380 0
DWIDTH 7 0
BBX 8 15 0 0
BITMAP
04
0A
11
00
3E
08
08
08
10
10
10
20
20
20
F8
ENDCHAR

STARTCHAR Imacron
ENCODING 207
SWIDTH 380 0
DWIDTH 7 0
BBX 8 14 0 0
BITMAP
3F
00
00
3E
08
08
08
10
10
10
20
20
20
F8
ENDCHAR

STARTCHAR Eth
ENCODING 208
SWIDTH 700 0
DWIDTH 13 0
BBX 13 11 0 0
BITMAP
1FE0
2010
4408
4408
8808
BF08
8808
5010
1010
1020
7FC0
ENDCHAR

STARTCHAR Ncommaaccent
ENCODING 209
SWIDTH 700 0
DWIDTH 13 0
BBX 16 15 0 -4
BITMAP
1E0E
2211
4510
4510
2510
0920
08A0
08A0
1040
1040
9040
6000
0400
0400
0800
ENDCHAR

STARTCHAR Omacron
ENCODING 210
SWIDTH 600 0
DWIDTH 11 0
BBX 11 14 0 0
BITMAP
07E0
0000
0000
0F80
1040
2020
4020
4020
8020
8040
8040
8080
4100
3E00
ENDCHAR

STARTCHAR Kcommaaccent
ENCODING 211
SWIDTH 660 0
DWIDTH 13 0
BBX 13 15 1 -4
BITMAP
38F0
4840
8880
8900
1200
1C00
1400
2200
2200
2100
F900
0088
0448
0430
0800
ENDCHAR

STARTCHAR Ocircumflex
ENCODING 212
SWIDTH 600 0
DWIDTH 11 0
BBX 11 15 0 0
BITMAP
0100
0280
0440
0000
0F80
1040
2020
4020
4020
8020
8040
8040
8080
4100
3E00
ENDCHAR

STARTCHAR Otilde
ENCODING 213
SWIDTH 600 0
DWIDTH 11 0
BBX 11 14 0 0
BITMAP
0640
0980
0000
0F80
1040
2020
4020
4020
8020
8040
8040
8080
4100
3E00
ENDCHAR

STARTCHAR Odieresis
ENCODING 214
SWIDTH 600 0
DWIDTH 11 0
BBX 11 14 0 0
BITMAP
0440
0440
0000
0F80
1040
2020
4020
4020
8020
8040
8040
8080
4100
3E00
ENDCHAR

STARTCHAR multiply
ENCODING 215
SWIDTH 520 0
DWIDTH 10 0
BBX 7 7 2 2
BITMAP
82
44
28
10
28
44
82
ENDCHAR

STARTCHAR Oslash
ENCODING 216
SWIDTH 660 0
DWIDTH 11 0
BBX 11 11 0 0
BITMAP
0FA0
1040
20A0
4120
4220
8420
8440
8840
9080
6100
BE00
ENDCHAR

STARTCHAR Uogonek
ENCODING 217
SWIDTH 740 0
DWIDTH 14 0
BBX 13 15 1 -3
BITMAP
0010
3C08
4408
8408
8808
4810
0810
1010
1020
1040
1080
0F00
0200
0200
0180
ENDCHAR

STARTCHAR Uacute
ENCODING 218
SWIDTH 740 0
DWIDTH 14 0
BBX 13 15 1 0
BITMAP
0060
0040
0080
0010
3C08
4408
8408
8808
4810
0810
1010
1020
1040
1080
0F00
ENDCHAR

STARTCHAR Ucircumflex
ENCODING 219
SWIDTH 740 0
DWIDTH 14 0
BBX 13 15 1 0
BITMAP
0100
0280
0440
0010
3C08
4408
8408
8808
4810
0810
1010
1020
1040
1080
0F00
ENDCHAR

STARTCHAR Udieresis
ENCODING 220
SWIDTH 740 0
DWIDTH 14 0
BBX 13 14 1 0
BITMAP
0440
0440
0010
3C08
4408
8408
8808
4810
0810
1010
1020
1040
1080
0F00
ENDCHAR

STARTCHAR Utilde
ENCODING 221
SWIDTH 740 0
DWIDTH 14 0
BBX 13 14 1 0
BITMAP
0720
08C0
0010
3C08
4408
8408
8808
4810
0810
1010
1020
1040
1080
0F00
ENDCHAR

STARTCHAR Umacron
ENCODING 222
SWIDTH 740 0
DWIDTH 14 0
BBX 13 14 1 0
BITMAP
07E0
0000
0010
3C08
4408
8408
8808
4810
0810
1010
1020
1040
1080
0F00
ENDCHAR

STARTCHAR germandbls
ENCODING 223
SWIDTH 420 0
DWIDTH 8 0
BBX 13 18 -4 -5
BITMAP
0070
0088
0088
0108
0110
0110
0120
0260
0210
0210
0410
0490
0460
0400
0800
0800
1000
E000
ENDCHAR

STARTCHAR amacron
ENCODING 224
SWIDTH 420 0
DWIDTH 8 0
BBX 8 11 1 0
BITMAP
1F
00
00
1E
22
42
42
84
84
8D
76
ENDCHAR

STARTCHAR aacute
ENCODING 225
SWIDTH 420 0
DWIDTH 8 0
BBX 8 12 1 0
BITMAP
03
02
04
00
1E
22
42
42
84
84
8D
76
ENDCHAR

STARTCHAR acircumflex
ENCODING 226
SWIDTH 420 0
DWIDTH 8 0
BBX 8 12 1 0
BITMAP
04
0A
11
00
1E
22
42
42
84
84
8D
76
ENDCHAR

STARTCHAR atilde
ENCODING 227
SWIDTH 420 0
DWIDTH 8 0
BBX 8 11 1 0
BITMAP
19
26
00
1E
22
42
42
84
84
8D
76
ENDCHAR

STARTCHAR adieresis
ENCODING 228
SWIDTH 420 0
DWIDTH 8 0
BBX 8 11 1 0
BITMAP
12
12
00
1E
22
42
42
84
84
8D
76
ENDCHAR

STARTCHAR aring
ENCODING 229
SWIDTH 420 0
DWIDTH 8 0
BBX 8 13 1 0
BITMAP
06
09
09
06
00
1E
22
42
42
84
84
8D
76
ENDCHAR

STARTCHAR ae
ENCODING 230
SWIDTH 540 0
DWIDTH 10 0
BBX 10 8 0 0
BITMAP
0F80
3240
4240
4380
8600
8400
9CC0
6700
ENDCHAR

STARTCHAR iogonek
ENCODING 231
SWIDTH 240 0
DWIDTH 5 0
BBX 5 15 1 -3
BITMAP
08
08
00
00
10
F0
20
20
40
40
48
30
20
20
18
ENDCHAR

STARTCHAR ccaron
ENCODING 232
SWIDTH 340 0
DWIDTH 6 0
BBX 7 12 1 0
BITMAP
22
14
08
00
1C
24
40
80
80
80
88
70
ENDCHAR

STARTCHAR eacute
ENCODING 233
SWIDTH 340 0
DWIDTH 6 0
BBX 6 12 1 0
BITMAP
0C
08
10
00
38
44
44
88
F0
80
88
70
ENDCHAR

STARTCHAR eogonek
ENCODING 234
SWIDTH 340 0
DWIDTH 6 0
BBX 6 11 1 -3
BITMAP
38
44
44
88
F0
80
88
70
20
20
18
ENDCHAR

STARTCHAR edieresis
ENCODING 235
SWIDTH 340 0
DWIDTH 6 0
BBX 6 11 1 0
BITMAP
24
24
00
38
44
44
88
F0
80
88
70
ENDCHAR

STARTCHAR edotaccent
ENCODING 236
SWIDTH 340 0
DWIDTH 6 0
BBX 6 11 1 0
BITMAP
10
10
00
38
44
44
88
F0
80
88
70
ENDCHAR

STARTCHAR iacute
ENCODING 237
SWIDTH 240 0
DWIDTH 5 0
BBX 6 12 1 0
BITMAP
0C
08
10
00
10
F0
20
20
40
40
48
30
ENDCHAR

STARTCHAR icircumflex
ENCODING 238
SWIDTH 240 0
DWIDTH 5 0
BBX 6 12 1 0
BITMAP
10
28
44
00
10
F0
20
20
40
40
48
30
ENDCHAR

STARTCHAR imacron
ENCODING 239
SWIDTH 240 0
DWIDTH 5 0
BBX 6 11 1 0
BITMAP
3C
00
00
10
F0
20
20
40
40
48
30
ENDCHAR

STARTCHAR dcroat
ENCODING 240
SWIDTH 440 0
DWIDTH 8 0
BBX 9 12 1 0
BITMAP
0180
0200
0F80
0200
3400
4C00
4400
8400
8400
8800
8900
7600
ENDCHAR

STARTCHAR ncommaaccent
ENCODING 241
SWIDTH 460 0
DWIDTH 9 0
BBX 8 12 1 -4
BITMAP
2C
F2
22
22
44
44
45
46
00
10
10
20
ENDCHAR

STARTCHAR omacron
ENCODING 242
SWIDTH 400 0
DWIDTH 8 0
BBX 7 11 1 0
BITMAP
1E
00
00
1C
22
42
82
82
84
88
70
ENDCHAR

STARTCHAR kcommaaccent
ENCODING 243
SWIDTH 440 0
DWIDTH 8 0
BBX 11 16 1 -4
BITMAP
0E00
1100
2000
2000
2C00
5200
4400
7800
5000
9000
9000
8800
0800
2400
2220
41C0
ENDCHAR

STARTCHAR ocircumflex
ENCODING 244
SWIDTH 400 0
DWIDTH 8 0
BBX 8 12 1 0
BITMAP
04
0A
11
00
1C
22
42
82
82
84
88
70
ENDCHAR

STARTCHAR otilde
ENCODING 245
SWIDTH 400 0
DWIDTH 8 0
BBX 8 11 1 0
BITMAP
19
26
00
1C
22
42
82
82
84
88
70
ENDCHAR

STARTCHAR odieresis
ENCODING 246
SWIDTH 400 0
DWIDTH 8 0
BBX 7 11 1 0
BITMAP
22
22
00
1C
22
42
82
82
84
88
70
ENDCHAR

STARTCHAR divide
ENCODING 247
SWIDTH 520 0
DWIDTH 10 0
BBX 9 7 1 2
BITMAP
0800
0800
0000
FF80
0000
0800
0800
ENDCHAR

STARTCHAR oslash
ENCODING 248
SWIDTH 440 0
DWIDTH 8 0
BBX 7 8 1 0
BITMAP
1E
26
4A
8A
92
A4
C8
F0
ENDCHAR

STARTCHAR uogonek
ENCODING 249
SWIDTH 460 0
DWIDTH 9 0
BBX 8 11 1 -3
BITMAP
22
E2
22
22
44
44
4D
36
04
04
03
ENDCHAR

STARTCHAR uacute
ENCODING 250
SWIDTH 460 0
DWIDTH 9 0
BBX 8 12 1 0
BITMAP
06
04
08
00
22
E2
22
22
44
44
4D
36
ENDCHAR

STARTCHAR ucircumflex
ENCODING 251
SWIDTH 460 0
DWIDTH 9 0
BBX 8 12 1 0
BITMAP
04
0A
11
00
22
E2
22
22
44
44
4D
36
ENDCHAR

STARTCHAR udieresis
ENCODING 252
SWIDTH 460 0
DWIDTH 9 0
BBX 8 11 1 0
BITMAP
12
12
00
22
E2
22
22
44
44
4D
36
ENDCHAR

STARTCHAR utilde
ENCODING 253
SWIDTH 460 0
DWIDTH 9 0
BBX 9 11 1 0
BITMAP
0C80
1300
0000
2200
E200
2200
2200
4400
4400
4D00
3600
ENDCHAR

STARTCHAR umacron
ENCODING 254
SWIDTH 460 0
DWIDTH 9 0
BBX 8 10 1 0
BITMAP
1F
00
22
E2
22
22
44
44
4D
36
ENDCHAR

STARTCHAR dotaccent
ENCODING 255
SWIDTH 220 0
DWIDTH 4 0
BBX 1 2 2 9
BITMAP
80
80
ENDCHAR
ENDFONT
